<svg xmlns="http://www.w3.org/2000/svg" width="50.974" height="52.07" viewBox="0 0 50.974 52.07"><defs><style>.a{fill:#ca8500;}</style></defs><path class="a" d="M.3,48.61.972,50.13,25.193,40.087l4.22.506,1.519,4.642-2.025,1.941a2.433,2.433,0,0,0-.591,2.785l.844,2.11,14.009-5.486-.759-2.025a2.386,2.386,0,0,0-2.363-1.6H37.261l-1.519-3.629,3.713-1.856a2.536,2.536,0,0,0,1.266-3.123l-4.81-12.912a2.6,2.6,0,0,0-3.292-1.519.082.082,0,0,0-.084.084L28.991,21.52l-.506-1.266,1.941-2.278a9.932,9.932,0,0,0,2.447-5.4L35.32,9.621a4.432,4.432,0,0,0-.591-6.245A7.064,7.064,0,0,0,33.717,2.7a4.193,4.193,0,0,0-2.869-.253l-.253-.76A2.441,2.441,0,0,0,27.387.169L9.58,6.583A2.47,2.47,0,0,0,8.061,9.789v.084l.422,1.1A4.676,4.676,0,0,0,6.036,16.71a4.8,4.8,0,0,0,3.882,3.122l3.967.422a10.991,10.991,0,0,0,5.486,2.11l2.785.253.506,1.266a2.513,2.513,0,0,0-1.181,1.688l-.591,2.869L.3,36.8l.591,1.6L12.7,33.673l2.869,8.608Zm40.425-3.544.169.506-10.8,4.3-.253-.506A1.17,1.17,0,0,1,30,48.442l2.869-2.7L36.5,44.56h3.376a.847.847,0,0,1,.844.506ZM35.4,43.04l-3.038,1.013-1.1-3.207a1.876,1.876,0,0,0,1.35-.253l1.435-.675ZM33.126,21.267a.838.838,0,0,1,1.1.422l.675,1.772-4.135,1.35.506,1.6,4.135-1.35,1.012,2.7-3.966,1.35.506,1.6,4.051-1.35,1.013,2.7-3.882,1.266.506,1.6,3.966-1.35.422,1.1a.745.745,0,0,1-.422,1.013L31.945,38.99a1.07,1.07,0,0,1-.506.084L25.7,38.4l-3.123-9.367.591-3.123a.893.893,0,0,1,.506-.591ZM33.042,4.219a2.8,2.8,0,0,1,1.435,3.629,2.957,2.957,0,0,1-.422.675L33.042,9.789a12.612,12.612,0,0,0-.506-2.447l-1.1-3.291a3.372,3.372,0,0,1,1.6.169ZM7.723,16.288a2.907,2.907,0,0,1,1.435-3.629l1.181,2.87A12.226,12.226,0,0,0,12.028,18.4l-1.772-.169a2.823,2.823,0,0,1-2.532-1.941ZM19.707,20.76a9.223,9.223,0,0,1-7.764-5.823L9.749,9.367a.837.837,0,0,1,.422-1.1L27.978,1.856a.932.932,0,0,1,.675,0,.865.865,0,0,1,.422.506l1.856,5.57a9.277,9.277,0,0,1-1.772,8.945l-2.616,3.038.759,2.025-3.038,1.266-.844-2.11ZM14.306,33l1.941-.759,2.11,6.414,1.6-.506-2.194-6.583,3.376-1.35,2.869,8.524-6.836,2.869Zm0,0" transform="translate(-0.297 0)"/><path class="a" d="M359.716,46.963v.844H361.4v-.844a4.179,4.179,0,0,1,4.22-4.22V41.056a4.179,4.179,0,0,1-4.22-4.22v-.844h-1.688v.844a4.178,4.178,0,0,1-4.22,4.22v1.688A4.179,4.179,0,0,1,359.716,46.963Zm.844-7.089a5.816,5.816,0,0,0,2.025,2.025,5.82,5.82,0,0,0-2.025,2.026,5.82,5.82,0,0,0-2.025-2.026A5.815,5.815,0,0,0,360.56,39.874Zm0,0" transform="translate(-318.025 -32.195)"/><path class="a" d="M7.716,206.963v.844H9.4v-.844a4.179,4.179,0,0,1,4.22-4.22v-1.688a4.179,4.179,0,0,1-4.22-4.22v-.844H7.716v.844a4.178,4.178,0,0,1-4.22,4.22v1.688A4.179,4.179,0,0,1,7.716,206.963Zm.844-7.089a5.816,5.816,0,0,0,2.025,2.025,5.821,5.821,0,0,0-2.025,2.026A5.821,5.821,0,0,0,6.534,201.9a5.816,5.816,0,0,0,2.025-2.025Zm0,0" transform="translate(-3.159 -175.316)"/><path class="a" d="M393.4,196.836v-.844h-1.688v.844a4.178,4.178,0,0,1-4.22,4.22v1.688a4.179,4.179,0,0,1,4.22,4.22v.844H393.4v-.844a4.179,4.179,0,0,1,4.22-4.22v-1.688A4.179,4.179,0,0,1,393.4,196.836Zm-.844,7.089a5.821,5.821,0,0,0-2.025-2.026,5.817,5.817,0,0,0,2.025-2.025,5.816,5.816,0,0,0,2.025,2.025A5.821,5.821,0,0,0,392.56,203.925Zm0,0" transform="translate(-346.65 -175.316)"/><path class="a" d="M236.465,50.795l1.181,1.181c4.642-4.642.337-11.731.084-11.984l-1.435.928c.084,0,3.882,6.161.169,9.874Zm0,0" transform="translate(-211.4 -35.773)"/></svg>