<svg xmlns="http://www.w3.org/2000/svg" width="41.175" height="53.967" viewBox="0 0 41.175 53.967"><defs><style>.a{fill:#ca8500;}</style></defs><path class="a" d="M101.855,44.667c-.12-7.334-7.619-9.5-13.094-11.084-.639-.185-1.253-.362-1.829-.539V30.019a10.782,10.782,0,0,0,2.892-2.658h3.335a2.964,2.964,0,0,0,2.96-2.96V20.817a3.8,3.8,0,0,0,.308-1.5V18.2a3.8,3.8,0,0,0-.308-1.5V14.852a14.85,14.85,0,1,0-29.7,0v1.8c0,.014,0,.028,0,.042a3.8,3.8,0,0,0-.313,1.512v1.114a3.824,3.824,0,0,0,3.818,3.821H70.8A10.727,10.727,0,0,0,75.6,30.018v3.026c-.576.177-1.19.355-1.829.539C68.3,35.166,60.8,37.333,60.68,44.667c0,.006,0,.011,0,.017v8.228a1.054,1.054,0,0,0,1.054,1.054h3.125a1.054,1.054,0,1,0,0-2.108H62.788V44.693c.044-2.559,1.22-4.477,3.7-6.037a24.156,24.156,0,0,1,5.608-2.376l2.547,4.962a1.065,1.065,0,0,0,1.527.393l1.136-.766.975,3.664-1.67,7.325H74.324a1.054,1.054,0,0,0,0,2.108H100.8a1.054,1.054,0,0,0,1.054-1.054V44.685c0-.006,0-.011,0-.017Zm-13.68-9.058.21.061-1.822,3.554-3.41-2.3,2.889-1.949c.671.211,1.385.418,2.133.634ZM81.268,38.2l2.114,1.425L82.36,43.46H80.175l-1.021-3.838Zm0-2.543-3.557-2.4V31.036a10.681,10.681,0,0,0,7.112,0v2.218Zm8.587-20.608-.043-.028c-2.163-1.377-4.031-2.566-6.958-1.728-.027.008-.054.017-.081.027-.621.233-1.185.45-1.731.66-3.333,1.283-5.153,1.984-8.362,1.894v-.844a8.587,8.587,0,1,1,17.174,0v.019ZM94.011,24.4a.853.853,0,0,1-.852.852h-2.1a10.606,10.606,0,0,0,.68-2.117h.871a3.792,3.792,0,0,0,1.4-.268V24.4Zm.308-5.085a1.713,1.713,0,0,1-1.71,1.713h-.647c0-.026,0-4.537,0-4.537h.646a1.712,1.712,0,0,1,1.71,1.71v1.114ZM69.926,21.028a1.713,1.713,0,0,1-1.71-1.713V18.2a1.711,1.711,0,0,1,1.71-1.71h.646s0,4.511,0,4.537Zm.666-6.645h-.666a3.8,3.8,0,0,0-1.4.266,12.741,12.741,0,0,1,25.478,0,3.8,3.8,0,0,0-1.4-.267h-.666a10.695,10.695,0,0,0-21.351,0Zm2.152,7.592v0a8.633,8.633,0,0,1-.063-1.022V17.977c3.606.088,5.757-.74,9.12-2.034.53-.2,1.077-.415,1.673-.639,1.991-.556,3.137.174,5.206,1.491.359.229.753.479,1.175.736V20.95a8.532,8.532,0,0,1-1.161,4.3H81.268a1.054,1.054,0,0,0,0,2.108h5.7a8.579,8.579,0,0,1-14.229-5.386Zm3.231,17.248L74.15,35.67l.21-.061c.748-.216,1.462-.423,2.133-.634l2.89,1.949Zm2.8,12.635,1.434-6.291H82.33l1.437,6.291Zm20.976,0H85.929l-1.673-7.325.975-3.666,1.138.768a1.065,1.065,0,0,0,1.527-.393l2.544-4.961a24.158,24.158,0,0,1,5.607,2.375c2.479,1.559,3.655,3.478,3.7,6.037v7.166Z" transform="translate(-60.68 0)"/><path class="a" d="M337.8,441.995h-5.312a1.054,1.054,0,1,0,0,2.108H337.8a1.054,1.054,0,1,0,0-2.108Z" transform="translate(-302.893 -395.407)"/><path class="a" d="M136.281,492a1.054,1.054,0,1,0,0,2.108h0a1.054,1.054,0,0,0,0-2.108Z" transform="translate(-127.369 -440.139)"/></svg>