<svg xmlns="http://www.w3.org/2000/svg" width="54.022" height="53.97" viewBox="0 0 54.022 53.97"><defs><style>.a{fill:#ca8500;}</style></defs><path class="a" d="M14.479,22.916a3.482,3.482,0,0,0,3.479-3.479V18.362l-2.072-4.143h5.551V24.655H17.958v1.739h8.7V24.655H23.176V14.218h5.551l-2.072,4.143v1.075a3.479,3.479,0,0,0,6.958,0V18.362l-2.941-5.883h-7.5V9H21.437v3.479h-7.5L11,18.362v1.075A3.482,3.482,0,0,0,14.479,22.916Zm15.655-1.739a1.741,1.741,0,0,1-1.739-1.739h3.479A1.741,1.741,0,0,1,30.134,21.176Zm1.2-3.479h-2.4l1.2-2.4ZM14.479,21.176a1.741,1.741,0,0,1-1.739-1.739h3.479A1.741,1.741,0,0,1,14.479,21.176Zm0-5.883,1.2,2.4h-2.4Z" transform="translate(-2.303 -2.042)"/><path class="a" d="M54.749,43.095a10.077,10.077,0,0,1-1.96-7.183l.517-4.648-1.5.25a8.71,8.71,0,0,1-7.574-2.427l-.616-.615L43,29.086a8.682,8.682,0,0,1-3.734,2.191V2.739A1.741,1.741,0,0,0,37.529,1H2.739A1.741,1.741,0,0,0,1,2.739V53.184a1.741,1.741,0,0,0,1.739,1.739H37.529a1.741,1.741,0,0,0,1.739-1.739v-.3a17.189,17.189,0,0,0,4.074,2l.275.092.275-.091A17.456,17.456,0,0,0,54.878,43.892l.144-.432Zm-10.3.066.224.722-.525-.4a.867.867,0,0,0-1.056,0l-.525.4.224-.722a.87.87,0,0,0-.3-.948l-.644-.491h.751a.871.871,0,0,0,.831-.613l.2-.633.2.633a.87.87,0,0,0,.831.613h.751l-.644.491A.871.871,0,0,0,44.446,43.161Zm-10.3.6a11.807,11.807,0,0,0,2.023-8.037l-.265-2.393a10.466,10.466,0,0,0,6.84-1.783V37.4l-.8,2.584H39.268a.87.87,0,0,0-.528,1.561l2.206,1.685L40.1,45.969a.869.869,0,0,0,1.359.948l1.291-.986v6.838a15.7,15.7,0,0,1-8.6-9.011ZM2.739,9.188,9.188,2.739h1.889L2.739,11.077ZM6.728,2.739,2.739,6.728V2.739Zm30.8,50.444H2.739V13.536l10.8-10.8H37.529V31.6a8.667,8.667,0,0,1-2.1-.09l-1.5-.25.517,4.649a10.078,10.078,0,0,1-1.96,7.183l-.273.364.144.432a17.417,17.417,0,0,0,5.174,7.674v1.617Zm6.958-.415V45.931l1.29.985a.869.869,0,0,0,1.359-.948l-.848-2.742,2.206-1.685a.869.869,0,0,0-.527-1.56h-2.68l-.8-2.585V31.545a10.438,10.438,0,0,0,6.84,1.783l-.265,2.393a11.8,11.8,0,0,0,2.023,8.037,15.707,15.707,0,0,1-8.6,9.011Z" transform="translate(-1 -1)"/><path class="a" d="M9,54.218H19.437V49H9Zm1.739-3.479H17.7v1.739H10.739Z" transform="translate(-2.042 -7.253)"/><path class="a" d="M25.609,49a2.609,2.609,0,1,0,2.609,2.609A2.612,2.612,0,0,0,25.609,49Zm0,3.479a.87.87,0,1,1,.87-.87A.871.871,0,0,1,25.609,52.479Z" transform="translate(-3.866 -7.253)"/><path class="a" d="M33.609,49a2.609,2.609,0,1,0,2.609,2.609A2.612,2.612,0,0,0,33.609,49Zm0,3.479a.87.87,0,1,1,.87-.87A.871.871,0,0,1,33.609,52.479Z" transform="translate(-4.908 -7.253)"/><path class="a" d="M9,45H19.437v1.739H9Z" transform="translate(-2.042 -6.732)"/><path class="a" d="M23,45H35.176v1.739H23Z" transform="translate(-3.866 -6.732)"/><path class="a" d="M9,37H19.437v1.739H9Z" transform="translate(-2.042 -5.69)"/><path class="a" d="M23,37H35.176v1.739H23Z" transform="translate(-3.866 -5.69)"/><path class="a" d="M9,41H33.352v1.739H9Z" transform="translate(-2.042 -6.211)"/><path class="a" d="M9,33H33.352v1.739H9Z" transform="translate(-2.042 -5.169)"/></svg>