<svg xmlns="http://www.w3.org/2000/svg" width="38.215" height="43.6" viewBox="0 0 38.215 43.6"><defs><style>.a{fill:#ca8500;stroke:#ca8500;stroke-width:0.5px;}</style></defs><g transform="translate(-31.738 0.25)"><path class="a" d="M43.521,167.412a.842.842,0,0,0-1.185-.092,5.107,5.107,0,0,0-1.771,3.3L38,167.647v-4.522a5.175,5.175,0,0,0-5.169-5.17.842.842,0,0,0-.842.842v10.686a.842.842,0,0,0,.1.389l6.779,13v4.042a.842.842,0,0,0,.842.842h8.513a.842.842,0,0,0,.842-.842V175.66a4.853,4.853,0,0,0-1.17-3.16Zm3.855,18.664H40.546v-3.407a.842.842,0,0,0-.1-.389l-6.779-13v-9.535a3.492,3.492,0,0,1,2.644,3.383v4.835a.842.842,0,0,0,.2.55l6.555,7.589.029.034a.842.842,0,1,0,1.274-1.1L43.054,173.5a3.467,3.467,0,0,1-.2-4.277l3.755,4.374a3.168,3.168,0,0,1,.764,2.063v10.416Z" transform="translate(0 -144.659)"/><path class="a" d="M289.759,168.511a.842.842,0,0,0,.205-.551v-4.582a3.6,3.6,0,0,1,2.644-3.638v9.743a.842.842,0,0,0,1.684,0V158.8a.842.842,0,0,0-.842-.842,5.016,5.016,0,0,0-3.731,1.612,5.578,5.578,0,0,0-1.439,3.81v4.269l-2.566,2.968a5.108,5.108,0,0,0-1.77-3.295.842.842,0,0,0-1.185.092l-4.368,5.088a4.853,4.853,0,0,0-1.17,3.16v11.258a.842.842,0,0,0,.842.842h8.513a.842.842,0,0,0,.842-.842v-4.042l3.326-6.379a.842.842,0,1,0-1.493-.778l-3.421,6.562a.842.842,0,0,0-.1.389v3.407H278.9V175.66a3.169,3.169,0,0,1,.764-2.063l3.755-4.374a3.468,3.468,0,0,1-.077,4.13l-1.607,1.858a.842.842,0,0,0,1.272,1.1Z" transform="translate(-224.589 -144.659)"/><path class="a" d="M159.431,22.757V19.525H161.6a.842.842,0,0,0,.835-.949l-.946-7.394,0-.013c-.02-.136-.045-.271-.075-.4a5.885,5.885,0,0,1,1.987,3.488l.237,1.361a.842.842,0,0,0,.828.7.854.854,0,0,0,.145-.013.842.842,0,0,0,.685-.974l-.237-1.361A7.564,7.564,0,0,0,161.2,8.582L158.908,7.34a4.154,4.154,0,1,0-5.322,0L151.3,8.582a7.565,7.565,0,0,0-3.867,5.383l-.237,1.361a.842.842,0,1,0,1.659.288l.237-1.361a5.885,5.885,0,0,1,1.987-3.488c-.03.134-.056.268-.075.4l0,.013-.946,7.394a.842.842,0,0,0,.835.949h2.173v3.232a.842.842,0,1,0,1.684,0V19.525h3v3.232a.842.842,0,1,0,1.684,0ZM156.247,1.684a2.47,2.47,0,1,1-2.47,2.47,2.473,2.473,0,0,1,2.47-2.47ZM152.669,11.4a3.615,3.615,0,0,1,7.155,0l.824,6.438h-8.8Z" transform="translate(-105.497)"/><path class="a" d="M440.568,326.163a.841.841,0,1,0-.455,1.1A.847.847,0,0,0,440.568,326.163Z" transform="translate(-372.705 -298.232)"/></g></svg>