<svg xmlns="http://www.w3.org/2000/svg" width="43.45" height="43.45" viewBox="0 0 43.45 43.45"><defs><style>.a{fill:#ca8500;stroke:#ca8500;stroke-width:0.35px;}</style></defs><g transform="translate(0.175 0.175)"><path class="a" d="M96.523,322.325l-1.83-1.1a3.6,3.6,0,0,0-1.846-.51H90.094a6.5,6.5,0,0,0-1.67.215l-8.3,2.227a2.893,2.893,0,0,0-1.953,1.812l-7.3-3.948a2.859,2.859,0,0,0-1.953-.323,2.7,2.7,0,0,0-.726.238,2.824,2.824,0,0,0-1.234,1.149,2.878,2.878,0,0,0-.38,1.429A2.847,2.847,0,0,0,68,326l13.078,7.825a3.591,3.591,0,0,0,1.891.538H93.095a3.581,3.581,0,0,0,1.32-.251l2.108-.832v1.084h7.183V320H96.523ZM93.887,332.78a2.162,2.162,0,0,1-.79.151H82.974a2.161,2.161,0,0,1-1.144-.329l-13.1-7.834a1.429,1.429,0,0,1-.714-1.247,1.459,1.459,0,0,1,.193-.718,1.412,1.412,0,0,1,.617-.57,1.353,1.353,0,0,1,.359-.116,1.511,1.511,0,0,1,.275-.026,1.408,1.408,0,0,1,.7.187l7.913,4.276c.009.044.009.087.021.131a2.881,2.881,0,0,0,2.777,2.126,7.059,7.059,0,0,0,1.184-.211l7.463-2-.37-1.388L81.715,327.2c-.328.075-.75.162-.838.169a1.437,1.437,0,0,1-1.389-1.058,1.312,1.312,0,0,1-.042-.266s-.006-.174,0-.235a1.452,1.452,0,0,1,1.057-1.267l8.292-2.218a5.02,5.02,0,0,1,1.3-.171h2.753a2.154,2.154,0,0,1,1.107.306L96.523,324v7.739Zm4.072-11.342h4.31V332.93H97.96Zm0,0" transform="translate(-60.606 -291.267)"/><path class="a" d="M29.627,5.746,25.774,1.893A6.42,6.42,0,0,0,21.2,0H12.171a3.616,3.616,0,0,0-1.606.379l-1.61.805a2.129,2.129,0,0,1-1.042.226l-.73-.026V0H0V15.8H7.183V13.648H8.4l.435.287a7.919,7.919,0,0,0,4.091,1.317v9.171H43.1V5.746Zm-23.88,8.62H1.437V1.436h4.31ZM9.634,12.74l-.8-.529H7.183V2.822l.677.024A3.606,3.606,0,0,0,9.6,2.469l1.609-.805a2.159,2.159,0,0,1,.965-.228H21.2a4.994,4.994,0,0,1,3.556,1.472L27.6,5.746H21.668L19.924,4,18.909,5.019l5.074,5.075a1.44,1.44,0,1,1-2.033,2.041L17.712,7.9l-.5.431a3.807,3.807,0,0,1-4.842.072l-.416-.337-.905,1.116.421.341a5.236,5.236,0,0,0,1.463.825v3.471a6.478,6.478,0,0,1-3.3-1.075Zm10.218-.672,1.084,1.084a2.894,2.894,0,0,0,4.059,0,3.636,3.636,0,1,0,.408-.521,2.825,2.825,0,0,0,.235-2.578h9.619a4.322,4.322,0,0,0,3.532,3.532v2.993a4.322,4.322,0,0,0-3.532,3.532H20.772a4.322,4.322,0,0,0-3.532-3.532V13.588a4.288,4.288,0,0,0,2.613-1.521Zm6.007,3.017a2.155,2.155,0,1,1,2.155,2.155A2.155,2.155,0,0,1,25.86,15.085Zm15.8,7.9h-27.3V10.645A5.223,5.223,0,0,0,17.6,9.819l1.226,1.226a2.866,2.866,0,0,1-2.3,1.167H15.8v5.747h.718a2.873,2.873,0,0,1,2.873,2.873v.718h17.24v-.718a2.873,2.873,0,0,1,2.873-2.873h.718V12.211h-.718a2.873,2.873,0,0,1-2.873-2.873V8.62H24.541L23.1,7.183H41.663Zm0,0"/></g></svg>