<svg xmlns="http://www.w3.org/2000/svg" width="46.579" height="43.5" viewBox="0 0 46.579 43.5"><defs><style>.a{fill:#ca8500;stroke:#ca8500;stroke-width:0.4px;}</style></defs><g transform="translate(0.2 0.2)"><path class="a" d="M43.87,9.236H33.864V3.079A3.079,3.079,0,0,0,30.786,0H15.393a3.079,3.079,0,0,0-3.079,3.079V9.236H2.309A2.309,2.309,0,0,0,0,11.545V20.78a.77.77,0,0,0,.385.668l1.154.658V40.791A2.309,2.309,0,0,0,3.848,43.1H42.33a2.309,2.309,0,0,0,2.309-2.309V22.107l1.154-.658a.77.77,0,0,0,.385-.668V11.545A2.309,2.309,0,0,0,43.87,9.236Zm-13.084,0V6.157h1.539V9.236Zm-1.539,0H16.932V4.618H29.246Zm-13.854-7.7H30.786a1.539,1.539,0,0,1,1.539,1.539V4.618H30.786v-.77a.77.77,0,0,0-.77-.77H16.162a.77.77,0,0,0-.77.77v.77H13.854V3.079A1.539,1.539,0,0,1,15.393,1.539ZM13.854,6.157h1.539V9.236H13.854ZM44.639,20.334l-4.823,2.755H38.482v1.539h1.539a.763.763,0,0,0,.385-.1L43.1,22.988v17.8a.77.77,0,0,1-.77.77H3.848a.77.77,0,0,1-.77-.77v-17.8l2.694,1.539a.764.764,0,0,0,.385.1H7.7V23.089H6.362L1.539,20.334V11.545a.77.77,0,0,1,.77-.77H43.87a.77.77,0,0,1,.77.77Zm0,0" transform="translate(0)"/><path class="a" d="M32,128.77v3.079h1.539v-2.309h2.309V128H32.77A.77.77,0,0,0,32,128.77Zm0,0" transform="translate(-28.921 -115.686)"/><path class="a" d="M411.078,128H408v1.539h2.309v2.309h1.539V128.77A.77.77,0,0,0,411.078,128Zm0,0" transform="translate(-368.748 -115.686)"/><path class="a" d="M112.431,155.072h1.738v-1.539h-9.377a2.295,2.295,0,0,0-4.335,0H91.079v1.539h1.738l-4.711,8.081a.765.765,0,0,0-.1.385v3.079c0,2.122,2.762,3.848,6.157,3.848s6.157-1.726,6.157-3.848v-3.079a.765.765,0,0,0-.1-.385L95.5,155.072h4.958a2.306,2.306,0,0,0,1.4,1.4v19.383H97.236v1.539h10.775v-1.539h-4.618V156.469a2.307,2.307,0,0,0,1.4-1.4h4.958l-4.711,8.081a.765.765,0,0,0-.1.385v3.079c0,2.122,2.762,3.848,6.157,3.848s6.157-1.726,6.157-3.848v-3.079a.766.766,0,0,0-.1-.385ZM98.775,166.616c0,.941-1.8,2.309-4.618,2.309s-4.618-1.367-4.618-2.309v-.77h9.236Zm0-2.309H89.54v-.561l4.618-7.917,4.618,7.917Zm3.848-9.236a.77.77,0,1,1,.77-.77A.77.77,0,0,1,102.624,155.072Zm8.466.758,4.618,7.917v.561h-9.236v-.561Zm4.618,10.787c0,.941-1.8,2.309-4.618,2.309s-4.618-1.367-4.618-2.309v-.77h9.236Zm0,0" transform="translate(-79.534 -137.37)"/><path class="a" d="M88,168h1.539v1.539H88Zm0,0" transform="translate(-79.534 -151.838)"/><path class="a" d="M376,168h1.539v1.539H376Zm0,0" transform="translate(-339.827 -151.838)"/><path class="a" d="M312,400h1.539v1.539H312Zm0,0" transform="translate(-281.984 -361.518)"/><path class="a" d="M152,400h1.539v1.539H152Zm0,0" transform="translate(-137.377 -361.518)"/></g></svg>