<svg xmlns="http://www.w3.org/2000/svg" width="41.161" height="43.1" viewBox="0 0 41.161 43.1"><defs><style>.a{fill:#ca8500;}</style></defs><g transform="translate(-11.518)"><path class="a" d="M93.445,347.123h7.272v2.525H93.445Z" transform="translate(-75.03 -317.902)"/><path class="a" d="M230.5,105.829h6.193v2.525H230.5Z" transform="translate(-200.549 -96.92)"/><path class="a" d="M52.679,8.324,47.017,2.663,42.352,7.327V0H17.379a5.875,5.875,0,0,0-5.861,5.875V43.1H42.352V18.651l3.733-3.733v3.775l-2.271,2.271L45.6,22.749l3.01-3.01V12.392Zm-3.571,0L47.334,10.1l-2.09-2.09,1.773-1.773ZM43.458,9.793l2.09,2.09L34.783,22.648A3.584,3.584,0,0,1,32.8,23.661l-1.325.21.21-1.325a3.586,3.586,0,0,1,1.012-1.987ZM17.379,2.525h.251a4,4,0,0,0-.285,1.489V5.961H15.6a4.058,4.058,0,0,0-1.558.31v-.4a3.346,3.346,0,0,1,3.335-3.35ZM39.827,40.575H14.043V10.049A1.562,1.562,0,0,1,15.6,8.486H19.87V4.014a1.425,1.425,0,0,1,.43-1.038,1.616,1.616,0,0,1,1.157-.451H39.827V9.853L35.72,13.96H18.415v2.525h14.78s-2.439,2.445-2.512,2.525H18.415v2.525h10.9c-.053.2-.406,2.634-.406,2.634h-10.5V26.7H28.576l4.616-.539a6.1,6.1,0,0,0,3.378-1.721l3.258-3.258Z"/><path class="a" d="M232.718,357.413a3.823,3.823,0,1,0,3.823,3.823A3.827,3.827,0,0,0,232.718,357.413Zm0,5.12a1.3,1.3,0,1,1,1.3-1.3A1.3,1.3,0,0,1,232.718,362.533Z" transform="translate(-199.078 -327.326)"/></g></svg>