<svg xmlns="http://www.w3.org/2000/svg" width="43.344" height="43.355" viewBox="0 0 43.344 43.355"><defs><style>.a{fill:#ca8500;stroke:#ca8500;stroke-width:0.25px;}</style></defs><g transform="translate(-1.875 -1.866)"><path class="a" d="M23.155,5a2.155,2.155,0,1,0,2.155,2.155A2.155,2.155,0,0,0,23.155,5Zm0,2.873a.718.718,0,1,1,.718-.718A.718.718,0,0,1,23.155,7.873Z" transform="translate(-5.354 -0.848)"/><path class="a" d="M11,33h2.873v1.436H11Z" transform="translate(-2.536 -8.737)"/><path class="a" d="M17,33H27.773v1.436H17Z" transform="translate(-4.227 -8.737)"/><path class="a" d="M11,39h2.873v1.436H11Z" transform="translate(-2.536 -10.428)"/><path class="a" d="M11,45h2.873v1.436H11Z" transform="translate(-2.536 -12.119)"/><path class="a" d="M11,51h2.873v1.436H11Z" transform="translate(-2.536 -13.809)"/><path class="a" d="M44.375,25.7h-.718a10.855,10.855,0,0,1-6.464-2.155l-1.724-1.293a.711.711,0,0,0-.862,0l-1.006.754V8.462a2.161,2.161,0,0,0-2.155-2.155H25.572A2.162,2.162,0,0,0,23.547,4.87H21.866a4.309,4.309,0,0,0-8.13,0H12.055A2.162,2.162,0,0,0,10.03,6.307H4.155A2.161,2.161,0,0,0,2,8.462V42.936a2.161,2.161,0,0,0,2.155,2.155H31.447a2.166,2.166,0,0,0,1.688-.826l1.594.754a.7.7,0,0,0,.618,0l6.306-3a6.436,6.436,0,0,0,3.44-5.71v-9.9a.718.718,0,0,0-.718-.718ZM25.7,7.743h5.746a.718.718,0,0,1,.718.718V24.04a10.944,10.944,0,0,1-1.436.754V9.9a.718.718,0,0,0-.718-.718H25.7ZM11.337,7.025a.718.718,0,0,1,.718-.718h2.227a.71.71,0,0,0,.7-.575,2.873,2.873,0,0,1,5.631,0,.71.71,0,0,0,.7.575h2.227a.718.718,0,0,1,.718.718V9.9H11.337Zm-.718,4.309H24.983a.718.718,0,0,0,.718-.718h3.591V25.3a10.8,10.8,0,0,1-2.873.4H25.7a.718.718,0,0,0-.718.718v2.155H12.773v1.436h12.21v2.873H12.773v1.436h12.21v2a7.087,7.087,0,0,0,.057.876H12.773v1.436H25.421a6.483,6.483,0,0,0,1.372,2.155H6.309V10.616H9.9a.718.718,0,0,0,.718.718Zm20.829,32.32H4.155a.718.718,0,0,1-.718-.718V8.462a.718.718,0,0,1,.718-.718H9.9V9.18H5.591a.718.718,0,0,0-.718.718V41.5a.718.718,0,0,0,.718.718H28.833L31.72,43.59a.723.723,0,0,1-.273.065Zm12.21-7.34a4.994,4.994,0,0,1-2.65,4.424l-5.968,2.837-5.954-2.83a5.01,5.01,0,0,1-2.665-4.431V27.135a12.282,12.282,0,0,0,7.326-2.442l1.293-.97,1.293.97a12.282,12.282,0,0,0,7.326,2.442Z"/><path class="a" d="M26.337,19.873H24.182V17.718A.718.718,0,0,0,23.464,17H20.591a.718.718,0,0,0-.718.718v2.155H17.718a.718.718,0,0,0-.718.718v2.873a.718.718,0,0,0,.718.718h2.155v2.155a.718.718,0,0,0,.718.718h2.873a.718.718,0,0,0,.718-.718V24.182h2.155a.718.718,0,0,0,.718-.718V20.591A.718.718,0,0,0,26.337,19.873Zm-.718,2.873H23.464a.718.718,0,0,0-.718.718v2.155H21.309V23.464a.718.718,0,0,0-.718-.718H18.436V21.309h2.155a.718.718,0,0,0,.718-.718V18.436h1.436v2.155a.718.718,0,0,0,.718.718h2.155Z" transform="translate(-4.227 -4.229)"/><path class="a" d="M51.754,37.714a13.677,13.677,0,0,1-6.141-2.571.711.711,0,0,0-.862,0,13.676,13.676,0,0,1-6.141,2.571.724.724,0,0,0-.61.711v7.189a3.587,3.587,0,0,0,1.853,3.139l.043.022,4.977,2.363a.7.7,0,0,0,.618,0l5.02-2.385a3.6,3.6,0,0,0,1.853-3.139V38.425a.724.724,0,0,0-.61-.711Zm-.826,7.9a2.125,2.125,0,0,1-1.077,1.86l-4.668,2.219-4.654-2.2a2.155,2.155,0,0,1-1.092-1.875V39.029A15.16,15.16,0,0,0,45.182,36.6a15.16,15.16,0,0,0,5.746,2.428Z" transform="translate(-10.144 -9.3)"/><path class="a" d="M43.309,45.884,42.293,46.9l2.155,2.155a.718.718,0,0,0,1.016,0l5.746-5.746-1.016-1.016-5.238,5.238Z" transform="translate(-11.353 -11.356)"/></g></svg>