<svg xmlns="http://www.w3.org/2000/svg" width="43.1" height="43.1" viewBox="0 0 43.1 43.1"><defs><style>.a{fill:#ca8500;}</style></defs><g transform="translate(-16 -16)"><path class="a" d="M218.578,203.493a.718.718,0,0,0,.718-.718V199.9a.718.718,0,0,0-.718-.718h-3.159a5.717,5.717,0,0,1-4.643-2.389,6.31,6.31,0,0,0-2.973-2.257v-1.819a.718.718,0,0,0-.718-.718h-2.873a.718.718,0,0,0-.718.718v1.819a6.31,6.31,0,0,0-2.973,2.257,5.717,5.717,0,0,1-4.643,2.389h-3.159a.718.718,0,0,0-.718.718v2.873a.718.718,0,0,0,.718.718h2.429l-1.437,2.873h-.993a.718.718,0,0,0-.718.718v.359a4.669,4.669,0,0,0,9.338,0v-.359a.718.718,0,0,0-.718-.718h-.993l-1.437-2.873h2.429a.719.719,0,0,0,.369-.1l2.36-1.416q.071-.043.144-.083v11.44l-1.1,1.654H199.9a.718.718,0,0,0-.642.4l-1.437,2.873a.718.718,0,0,0,.642,1.04h14.367a.718.718,0,0,0,.642-1.04l-1.437-2.873a.718.718,0,0,0-.642-.4h-2.489l-1.1-1.654v-11.44q.073.04.144.083l2.36,1.416a.719.719,0,0,0,.37.1h2.429l-1.437,2.873h-.993a.718.718,0,0,0-.718.718v.359a4.669,4.669,0,0,0,9.338,0v-.359a.718.718,0,0,0-.718-.718h-.993l-1.437-2.873ZM204.93,193.437h1.437v.76a6.2,6.2,0,0,0-1.437,0Zm-8.261,17.24a3.237,3.237,0,0,1-3.213-2.873h6.425A3.237,3.237,0,0,1,196.669,210.677Zm-1.352-4.31,1.352-2.7,1.352,2.7Zm16.352,11.493H199.627l.718-1.437h10.605Zm-5.182-3.912.692,1.038h-3.062l.692-1.038a.718.718,0,0,0,.121-.4V201.4a4.432,4.432,0,0,1,1.437,0V213.55a.718.718,0,0,0,.121.4Zm2.2-13.205h0a5.906,5.906,0,0,0-6.076,0l-2.189,1.314h-6.984V200.62h2.441a7.157,7.157,0,0,0,5.812-2.991,4.865,4.865,0,0,1,7.918,0,7.157,7.157,0,0,0,5.812,2.991h2.441v1.437h-6.984Zm5.941,9.934a3.237,3.237,0,0,1-3.213-2.873h6.425a3.237,3.237,0,0,1-3.213,2.873Zm-1.352-4.31,1.352-2.7,1.352,2.7Z" transform="translate(-160.196 -160.197)"/><circle class="a" cx="1.437" cy="1.437" r="1.437" transform="translate(44.015 36.113)"/><path class="a" d="M152,80h7.183v1.437H152Z" transform="translate(-123.788 -58.253)"/><path class="a" d="M112,80h1.437v1.437H112Z" transform="translate(-87.38 -58.253)"/><path class="a" d="M160,136h6.465v1.437H160Z" transform="translate(-131.07 -109.225)"/><path class="a" d="M72,136h6.465v1.437H72Z" transform="translate(-50.971 -109.225)"/><path class="a" d="M200,192h9.338v1.437H200Z" transform="translate(-167.478 -160.197)"/><path class="a" d="M120,192h5.747v1.437H120Z" transform="translate(-94.661 -160.197)"/><path class="a" d="M72,192h2.873v1.437H72Z" transform="translate(-50.971 -160.197)"/><path class="a" d="M72,248h9.338v1.437H72Z" transform="translate(-50.971 -211.169)"/><path class="a" d="M128,304h4.31v1.437H128Z" transform="translate(-101.943 -262.14)"/><path class="a" d="M72,304h2.873v1.437H72Z" transform="translate(-50.971 -262.14)"/><path class="a" d="M72,360h9.338v1.437H72Z" transform="translate(-50.971 -313.112)"/><path class="a" d="M136,416h6.465v1.437H136Z" transform="translate(-109.225 -364.084)"/><path class="a" d="M72,416h4.31v1.437H72Z" transform="translate(-50.971 -364.084)"/><path class="a" d="M18.155,59.1H36.114V57.663H18.155a.719.719,0,0,1-.718-.718V18.155a.719.719,0,0,1,.718-.718H37.8a2.173,2.173,0,0,1,.472.052V24.62a3.6,3.6,0,0,0,3.592,3.592h4.31V26.775H41.86a2.157,2.157,0,0,1-2.155-2.155V18.452l8.707,8.707a2.141,2.141,0,0,1,.631,1.524v5.275H50.48V28.683a3.569,3.569,0,0,0-1.052-2.54l-9.092-9.092A3.568,3.568,0,0,0,37.8,16H18.155A2.157,2.157,0,0,0,16,18.155v38.79A2.157,2.157,0,0,0,18.155,59.1Z" transform="translate(0 0)"/></g></svg>