<svg xmlns="http://www.w3.org/2000/svg" width="34.172" height="43.6" viewBox="0 0 34.172 43.6"><defs><style>.a{fill:#ca8500;stroke:#ca8500;stroke-width:0.5px;}</style></defs><g transform="translate(-55.75 0.25)"><g transform="translate(79.57 37.797)"><g transform="translate(0)"><path class="a" d="M336.841,449a.842.842,0,1,0,.842.842A.842.842,0,0,0,336.841,449Z" transform="translate(-335.999 -449)"/></g></g><g transform="translate(56)"><g transform="translate(0)"><path class="a" d="M88.361,30.287A7.55,7.55,0,0,0,84.883,27.5l-6.175-2.444a8.429,8.429,0,0,0,2.124-8.671.841.841,0,0,0,.422-.729V13.078l1.469-2.938,1.433-.716a.842.842,0,0,0,.465-.753V6.145a.842.842,0,0,0-.576-.8l-2.394-.8L75.869.171A.842.842,0,0,0,75.361,0H70.31A.842.842,0,0,0,69.8.171L64.02,4.548l-2.394.8a.842.842,0,0,0-.576.8V8.67a.842.842,0,0,0,.465.753l1.433.716,1.469,2.938v2.579a.841.841,0,0,0,.422.729,8.43,8.43,0,0,0,2.124,8.67L60.788,27.5A7.576,7.576,0,0,0,56,34.545v7.713a.842.842,0,0,0,.842.842H88.83a.842.842,0,0,0,.842-.842V34.546A7.548,7.548,0,0,0,88.361,30.287Zm-7.008-2.372L76.2,36.446V33.9a2.538,2.538,0,0,0-.505-1.515L74.212,30.4a2.525,2.525,0,0,0,1.149-2.116V27.056a8.312,8.312,0,0,0,1.791-.8ZM64.329,9.136a.842.842,0,0,0-.377-.376L62.734,8.15v-1.4l1.95-.65a.842.842,0,0,0,.242-.127l5.667-4.291h4.485l5.667,4.291a.842.842,0,0,0,.242.127l1.95.65v1.4l-1.218.609a.842.842,0,0,0-.377.376l-1.451,2.9H65.78ZM66.1,13.721H79.57v1.327l-2.2.724a14.531,14.531,0,0,1-4.542.727,14.567,14.567,0,0,1-2.315-.185,14.693,14.693,0,0,1-2.256-.551l-1.626-.538a.837.837,0,0,0-.528-.286Zm0,5.3a6.691,6.691,0,0,1,.332-2.092l1.294.428a16.393,16.393,0,0,0,2.516.615,16.252,16.252,0,0,0,2.583.207,16.213,16.213,0,0,0,5.068-.812l1.344-.442a6.744,6.744,0,0,1-2.62,7.667l-.038.026a6.657,6.657,0,0,1-2.247.969,6.831,6.831,0,0,1-2.995,0,6.662,6.662,0,0,1-2.261-.979A6.73,6.73,0,0,1,66.1,19.025ZM73.678,27.4v.884a.842.842,0,0,1-1.684,0V27.4c.279.028.56.043.842.043S73.4,27.428,73.678,27.4Zm-5.159-1.149a8.316,8.316,0,0,0,1.792.8v1.229a2.509,2.509,0,0,0,.74,1.786,2.556,2.556,0,0,0,.408.331l-1.485,1.979a2.539,2.539,0,0,0-.505,1.516v2.549l-5.15-8.532ZM57.684,41.416V34.545a5.861,5.861,0,0,1,3.724-5.479l1.324-.524L69.52,39.789l.983,1.627Zm16.836-2.182L73.2,41.416h-.733l-1.317-2.181V33.9a.845.845,0,0,1,.168-.505l1.515-2.02,1.516,2.021a.844.844,0,0,1,.168.5v5.338Zm.65,2.182L82.94,28.543l1.323.524a5.862,5.862,0,0,1,3.725,5.479v6.871Z" transform="translate(-56)"/></g></g><g transform="translate(69.469 3.62)"><g transform="translate(0)"><path class="a" d="M219.366,43a3.367,3.367,0,1,0,3.367,3.367A3.371,3.371,0,0,0,219.366,43Zm0,5.051a1.684,1.684,0,1,1,1.684-1.684A1.685,1.685,0,0,1,219.366,48.051Z" transform="translate(-215.999 -43)"/></g></g><g transform="translate(82.937 37.797)"><g transform="translate(0)"><path class="a" d="M378.524,449h-1.684a.842.842,0,0,0,0,1.684h1.684a.842.842,0,0,0,0-1.684Z" transform="translate(-375.999 -449)"/></g></g></g></svg>