<svg xmlns="http://www.w3.org/2000/svg" width="33.228" height="43.25" viewBox="0 0 33.228 43.25"><defs><style>.a{fill:#ca8500;stroke:#ca8500;stroke-width:0.15px;}</style></defs><g transform="translate(-50.044 0.075)"><path class="a" d="M62.86,9.443V5.471A5.478,5.478,0,0,0,57.389,0h-1.8a5.478,5.478,0,0,0-5.471,5.471V37.629A5.478,5.478,0,0,0,55.59,43.1H83.2V9.443ZM51.619,5.471A3.976,3.976,0,0,1,55.59,1.5h1.8a3.976,3.976,0,0,1,3.972,3.972v28.4a5.455,5.455,0,0,0-3.972-1.714h-1.8a5.455,5.455,0,0,0-3.972,1.714ZM55.59,41.6a3.972,3.972,0,1,1,0-7.943h1.8a3.946,3.946,0,0,1,1.838.452v3.519a2,2,0,0,1-2.179,1.728H55.932a2,2,0,0,1-2.179-1.728A2,2,0,0,1,55.932,35.9h.386a.4.4,0,0,1,0,.8h-1.15v1.5h1.15a1.9,1.9,0,0,0,0-3.8h-.386a3.479,3.479,0,0,0-3.679,3.227,3.479,3.479,0,0,0,3.679,3.227h1.116a3.479,3.479,0,0,0,3.679-3.227V35.48a3.968,3.968,0,0,1-3.338,6.12h-1.8Zm26.106,0H61.146a5.455,5.455,0,0,0,1.714-3.972V10.942H81.7V41.6Z" transform="translate(0 0)"/><rect class="a" width="1.5" height="14.498" transform="translate(77.515 25.052)"/><rect class="a" width="1.5" height="9.361" transform="translate(77.515 12.992)"/><rect class="a" width="1.5" height="4.299" transform="translate(73.083 35.251)"/><rect class="a" width="1.5" height="14.798" transform="translate(73.083 17.653)"/><rect class="a" width="1.5" height="2.662" transform="translate(73.083 12.992)"/><rect class="a" width="1.5" height="12.598" transform="translate(68.65 26.952)"/><rect class="a" width="1.5" height="12.06" transform="translate(68.65 12.992)"/><rect class="a" width="1.5" height="18.997" transform="translate(64.217 20.553)"/><rect class="a" width="1.5" height="5.561" transform="translate(64.217 12.992)"/></g></svg>