<svg xmlns="http://www.w3.org/2000/svg" width="48" height="43.103" viewBox="0 0 48 43.103"><defs><style>.a{fill:#ca8500;}</style></defs><g transform="translate(0 -26.111)"><path class="a" d="M16.039,64.748A12.3,12.3,0,1,1,26.11,60.433a9.453,9.453,0,0,0,4.448,1.494,16.744,16.744,0,0,0-.423-19.5,16.808,16.808,0,0,0-6.7-5.3,16.534,16.534,0,0,0-4.572-1.26c3.187-2.346,4.406-4.313,4.406-6.028a3.726,3.726,0,0,0-6.53-2.453,3.726,3.726,0,0,0-6.53,2.453c0,1.715,1.219,3.682,4.407,6.029a16.742,16.742,0,1,0,5.871,32.927,19.665,19.665,0,0,1-4.451-4.045Z" transform="translate(0 0)"/><path class="a" d="M171.56,128.715a16.778,16.778,0,0,0-3.749.421,19.669,19.669,0,0,1,4.451,4.045,12.3,12.3,0,1,1-10.071,4.315A9.453,9.453,0,0,0,157.742,136a16.743,16.743,0,0,0,.423,19.5,16.807,16.807,0,0,0,6.7,5.3,16.742,16.742,0,1,0,6.7-32.088Z" transform="translate(-140.3 -92.983)"/></g></svg>