<svg xmlns="http://www.w3.org/2000/svg" width="36.321" height="43.6" viewBox="0 0 36.321 43.6"><defs><style>.a{fill:#ca8500;stroke:#ca8500;stroke-width:0.5px;}</style></defs><g transform="translate(-42.983 0.25)"><path class="a" d="M77.181,35.287V33.263a4.561,4.561,0,0,0,.081-7.308.829.829,0,0,0-.876-.083.84.84,0,0,0-.468.757v2.112c0,.024-.015.035-.021.035h-1.74c-.007,0-.021-.012-.021-.035V26.629a.84.84,0,0,0-.467-.757.83.83,0,0,0-.876.081,4.555,4.555,0,0,0-1.776,3.257l-6.993-2.353a1,1,0,0,1-.684-.952h0a8.742,8.742,0,0,0,4.431-6.927,2.2,2.2,0,0,0,1.393-3.851,2.513,2.513,0,0,0-1.618-3.558V8.791a6.718,6.718,0,0,0-4.962-6.485A2.392,2.392,0,0,0,60.2,0h-2.26a2.392,2.392,0,0,0-2.387,2.306A6.718,6.718,0,0,0,50.59,8.791v2.778a2.513,2.513,0,0,0-1.618,3.558,2.2,2.2,0,0,0,1.393,3.851A8.742,8.742,0,0,0,54.8,25.9h0a1,1,0,0,1-.685.952l-7.1,2.391A5.534,5.534,0,0,0,43.233,34.5v7.969a.631.631,0,0,0,.631.631h0a.631.631,0,0,0,.631-.631V34.5a4.352,4.352,0,0,1,1.977-3.606l1.816,2.027a3.688,3.688,0,0,1,.943,2.465v7.083a.631.631,0,0,0,1.263,0V40.534h7.942v1.935a.631.631,0,0,0,1.263,0V40.534h7.942v1.935a.631.631,0,0,0,1.263,0V35.386a3.689,3.689,0,0,1,.942-2.465l1.478-1.649a4.491,4.491,0,0,0,1.549,1.992v1.816a1.641,1.641,0,0,0-1.857,1.606v4.809A1.608,1.608,0,0,0,72.623,43.1H76.1a2.945,2.945,0,0,0,2.942-2.942V38.021a2.946,2.946,0,0,0-1.857-2.734ZM68.656,16.781a.945.945,0,0,1-.859.932V16.358a2.514,2.514,0,0,0,.538-.281.939.939,0,0,1,.321.7Zm-18.318.932a.934.934,0,0,1-.538-1.636,2.51,2.51,0,0,0,.538.281ZM49.969,14a1.253,1.253,0,0,1,1.249-1.252h8.387a.631.631,0,0,0,0-1.263H51.852v-2.7a5.457,5.457,0,0,1,3.7-5.166V7.411a.631.631,0,1,0,1.263,0V2.389a1.128,1.128,0,0,1,1.126-1.126H60.2a1.128,1.128,0,0,1,1.126,1.126V7.411a.631.631,0,1,0,1.263,0V3.625a5.457,5.457,0,0,1,3.7,5.166v2.7H62.552a.631.631,0,1,0,0,1.263h4.364a1.252,1.252,0,1,1,0,2.5H51.221A1.253,1.253,0,0,1,49.969,14ZM51.6,18.295V16.518H66.535v1.777a7.467,7.467,0,0,1-14.933,0Zm4.387,8.168a8.731,8.731,0,0,0,6.159,0,2.272,2.272,0,0,0,1.539,1.613,7.245,7.245,0,0,1-9.238,0,2.286,2.286,0,0,0,1.54-1.613Zm3.068,10.018a17.566,17.566,0,0,1-2.279-2.542.631.631,0,1,0-1.018.747,18.825,18.825,0,0,0,2.677,2.935v1.649H50.495V35.385a4.949,4.949,0,0,0-1.265-3.307l-1.546-1.725,5.132-1.727a18.825,18.825,0,0,0,1.344,3.459.631.631,0,1,0,1.126-.572,17.512,17.512,0,0,1-.812-1.86,8.5,8.5,0,0,0,9.12.043,19.222,19.222,0,0,1-4.537,6.784Zm9.85-4.4a4.95,4.95,0,0,0-1.265,3.308v3.885H59.7V37.611A20.471,20.471,0,0,0,65.3,28.621l5.148,1.732Zm3.357-2.5a3.316,3.316,0,0,1,.61-1.915v1.077a1.292,1.292,0,0,0,1.284,1.3H75.9a1.292,1.292,0,0,0,1.284-1.3V27.657a3.309,3.309,0,0,1-.821,4.639,1.008,1.008,0,0,0-.442.834v1.948H74.136V33.131a1.01,1.01,0,0,0-.444-.836,3.266,3.266,0,0,1-1.429-2.716Zm5.512,10.579A1.681,1.681,0,0,1,76.1,41.837H72.623a.344.344,0,0,1-.344-.344V36.685a.344.344,0,0,1,.344-.344H76.1a1.681,1.681,0,0,1,1.679,1.679Zm-17.2-16.627a.631.631,0,1,0-.731-1.029,1.333,1.333,0,0,1-1.553,0,.631.631,0,1,0-.73,1.03,2.634,2.634,0,0,0,1.507.482,2.789,2.789,0,0,0,1.507-.483Zm-5.2-6.3a.631.631,0,0,0-.631.631v1.307a.631.631,0,0,0,1.263,0V17.86A.631.631,0,0,0,55.375,17.229ZM62.762,19.8a.631.631,0,0,0,.631-.631V17.86a.631.631,0,1,0-1.263,0v1.307A.631.631,0,0,0,62.762,19.8Z"/></g></svg>